<svg version="1" xmlns="http://www.w3.org/2000/svg">

  <symbol id="icon-ads" viewBox="0 0 496 496">
    <path d="m476.335938 99.671875c-2.582032-9.871094-6.511719-19.328125-11.726563-28.199219l9.292969-18.585937-30.78125-30.78125-18.585938 9.292969c-8.871094-5.214844-18.328125-9.152344-28.207031-11.726563l-6.558594-19.671875h-43.53125l-6.558593 19.671875c-9.878907 2.574219-19.335938 6.503906-28.207032 11.726563l-18.59375-9.292969-30.78125 30.773437 9.292969 18.585938c-5.207031 8.871094-9.144531 18.328125-11.726563 28.199218l-19.664062 6.566407v21.769531h-200c-22.054688 0-40 17.945312-40 40v240c0 22.054688 17.945312 40 40 40h104v32h-32v16h272v-16h-32v-32h104c22.054688 0 40-17.945312 40-40v-301.769531zm-140.335938 380.328125h-176v-32h176zm120-48h-416c-13.230469 0-24-10.769531-24-24v-8h464v8c0 13.230469-10.769531 24-24 24zm24-48h-464v-216c0-13.230469 10.769531-24 24-24h200v5.769531l19.664062 6.558594c2.582032 9.871094 6.511719 19.328125 11.726563 28.199219l-9.292969 18.585937 30.78125 30.78125 18.585938-9.292969c8.871094 5.214844 18.328125 9.152344 28.207031 11.726563l6.558594 19.671875h43.53125l6.558593-19.671875c9.878907-2.574219 19.335938-6.503906 28.207032-11.726563l18.585937 9.292969 30.78125-30.78125-9.292969-18.585937c5.207032-8.871094 9.140626-18.328125 11.726563-28.199219l3.671875-1.222656zm0-245.769531-17.265625 5.761719-.964844 4.449218c-2.417969 11.125-6.808593 21.679688-13.035156 31.367188l-2.460937 3.832031 8.167968 16.320313-14.472656 14.472656-16.328125-8.167969-3.832031 2.46875c-9.6875 6.226563-20.242188 10.617187-31.359375 13.035156l-4.449219.964844-5.769531 17.265625h-20.46875l-5.761719-17.265625-4.449219-.964844c-11.125-2.417969-21.671875-6.808593-31.359375-13.035156l-3.832031-2.46875-16.328125 8.167969-14.472656-14.472656 8.167968-16.320313-2.460937-3.832031c-6.234375-9.6875-10.617187-20.242188-13.035156-31.367188l-.964844-4.449218-17.265625-5.761719v-20.46875l17.265625-5.761719.964844-4.449219c2.417969-11.125 6.808593-21.679687 13.035156-31.367187l2.460937-3.832032-8.167968-16.320312 14.472656-14.472656 16.328125 8.167968 3.832031-2.46875c9.6875-6.226562 20.242188-10.617187 31.359375-13.035156l4.449219-.964844 5.769531-17.257812h20.46875l5.761719 17.265625 4.449219.964844c11.125 2.417969 21.671875 6.808593 31.359375 13.035156l3.832031 2.46875 16.328125-8.167969 14.472656 14.472656-8.167968 16.320313 2.460937 3.832031c6.234375 9.6875 10.617187 20.242188 13.035156 31.367188l.964844 4.449218 17.265625 5.761719zm0 0"/><path d="m368 48c-44.113281 0-80 35.886719-80 80s35.886719 80 80 80 80-35.886719 80-80-35.886719-80-80-80zm0 144c-35.289062 0-64-28.710938-64-64s28.710938-64 64-64 64 28.710938 64 64-28.710938 64-64 64zm0 0"/><path d="m368 96c-17.648438 0-32 14.351562-32 32s14.351562 32 32 32 32-14.351562 32-32-14.351562-32-32-32zm0 48c-8.824219 0-16-7.175781-16-16s7.175781-16 16-16 16 7.175781 16 16-7.175781 16-16 16zm0 0"/><path d="m48 192v8c0 8.824219-7.175781 16-16 16v16c8.824219 0 16 7.175781 16 16v8c0 13.230469 10.769531 24 24 24h8v-16h-8c-4.40625 0-8-3.585938-8-8v-8c0-9.542969-4.199219-18.136719-10.855469-24 6.65625-5.863281 10.855469-14.457031 10.855469-24v-8c0-4.414062 3.59375-8 8-8h8v-16h-8c-13.230469 0-24 10.769531-24 24zm0 0"/>
    <path d="m296 272v-8c0-13.230469-10.769531-24-24-24h-8v16h8c4.40625 0 8 3.585938 8 8v8c0 9.542969 4.199219 18.136719 10.855469 24-6.65625 5.863281-10.855469 14.457031-10.855469 24v8c0 4.414062-3.59375 8-8 8h-8v16h8c13.230469 0 24-10.769531 24-24v-8c0-8.824219 7.175781-16 16-16v-16c-8.824219 0-16-7.175781-16-16zm0 0"/>
    <path d="m96 176h152v16h-152zm0 0"/>
    <path d="m128 208h120v16h-120zm0 0"/>
    <path d="m96 208h16v16h-16zm0 0"/>
    <path d="m96 240h152v16h-152zm0 0"/>
    <path d="m96 272h152v16h-152zm0 0"/>
    <path d="m232 304h16v16h-16zm0 0"/>
    <path d="m96 304h120v16h-120zm0 0"/>
    <path d="m96 336h152v16h-152zm0 0"/>
  </symbol>


  <symbol id="icon-comex" viewBox="0 0 496.027 496.027">
		<path d="M383.98,40.768c44.64-24.032,77.984-31.176,90.216-18.928c7.424,7.416,7.712,23.56,0.816,45.448l15.264,4.808
			c9.024-28.664,7.424-49.384-4.768-61.568c-24-24.016-76.312-2.544-117.296,20.672C332.58,11.368,291.612,0.024,248.02,0.024
			c-136.752,0-248,111.256-248,248c0,43.584,11.344,84.56,31.168,120.192C7.98,409.2-13.492,461.512,10.524,485.52
			c7.2,7.208,17.184,10.488,29.32,10.488c23.024,0,53.8-11.952,87.816-31.248c35.672,19.88,76.704,31.264,120.36,31.264
			c136.752,0,248-111.256,248-248C496.02,161.456,451.396,85.144,383.98,40.768z M223.5,17.328
			c-20.512,17.888-52.664,50.48-77.208,96.368c-35.392-11.928-51.544-27.96-57.04-34.608C125.188,45.296,171.82,22.784,223.5,17.328
			z M77.884,90.512c7.704,9.016,25.632,25.464,61.144,37.76c-14.888,31.784-25.6,69.168-26.808,111.752h-96
			C18.188,182.416,41.22,130.088,77.884,90.512z M16.22,256.024h96c1.216,42.584,11.92,79.968,26.808,111.752
			c-35.512,12.288-53.448,28.736-61.144,37.76C41.22,365.96,18.188,313.632,16.22,256.024z M21.844,474.208
			c-12.256-12.256-5.12-45.592,18.92-90.224c18.624,28.296,42.864,52.552,71.144,71.2C66.284,479.648,33.692,486.048,21.844,474.208
			z M89.212,416.92c5.352-6.664,21.28-22.808,56.992-34.744c7.224,13.528,15.104,25.912,23.168,37.104
			c-14.688,10.328-28.632,19.328-41.696,27.024C113.82,437.864,100.964,427.976,89.212,416.92z M162.324,377.488
			c19.32-4.896,43.208-8.448,72.624-9.272c-18.112,15.416-35.576,29.224-52.216,41.456
			C175.676,399.864,168.756,389.136,162.324,377.488z M143.804,455.2c11.504-7.088,23.256-14.864,35.168-23.272
			c16.28,20.528,32.424,36.232,44.528,46.792C195.092,475.72,168.228,467.544,143.804,455.2z M240.02,471.6
			c-11.512-9.656-29.496-26.328-47.728-49.304c15.928-11.728,31.944-24.36,47.728-37.576V471.6z M240.02,352.128
			c-34.832,0.576-62.848,4.8-85.168,10.816c-14.68-30.456-25.36-66.288-26.624-106.92H240.02V352.128z M240.02,240.024H128.228
			c1.264-40.6,11.968-76.44,26.672-106.904c22.312,6,50.312,10.232,85.12,10.8V240.024z M240.02,127.928
			c-31.624-0.544-57.144-4.248-77.568-9.472c25.8-46.68,59.584-78.864,77.568-93.984V127.928z M406.836,79.136
			c-5.368,6.672-21.336,22.864-57.192,34.8c-24.568-46.008-56.688-78.712-77.144-96.608
			C324.22,22.776,370.892,45.312,406.836,79.136z M256.02,24.432c18.04,15.104,51.992,47.32,77.8,94.104
			c-20.424,5.184-46.008,8.856-77.8,9.392V24.432z M256.02,143.92c34.912-0.576,62.976-4.824,85.32-10.856
			c5.376,11.168,10.216,23.056,14.248,35.64c-3.808-0.416-7.656-0.68-11.568-0.68c-37.064,0-69.576,19.552-88,48.832V143.92z
			 M256.02,327.192c3,4.768,6.36,9.264,10.072,13.464c-3.376,3.096-6.736,6.152-10.072,9.144V327.192z M256.02,371.064
			c1.112-0.968,2.224-1.928,3.328-2.896c30.224,0.736,54.704,4.408,74.456,9.488c-25.76,46.68-59.736,78.848-77.784,93.944V371.064z
			 M276.38,352.904c0.376-0.344,0.752-0.68,1.128-1.024c0.496,0.416,1.016,0.792,1.52,1.2
			C278.148,353.024,277.268,352.96,276.38,352.904z M272.412,478.736c20.36-17.832,52.336-50.432,77.032-96.488
			c35.608,11.936,51.832,28.048,57.344,34.712C370.828,450.776,324.14,473.304,272.412,478.736z M418.156,405.536
			c-6.704-7.848-21.176-21.328-48.24-32.8c12.416-3.176,24.184-8.6,34.784-16.224l-9.344-12.992
			c-15.024,10.8-32.776,16.504-51.336,16.504c-48.52,0-88-39.48-88-88c0-48.52,39.48-88,88-88c48.52,0,88,39.48,88,88
			c0,21.688-7.96,42.52-22.408,58.664l11.92,10.672c17.08-19.08,26.488-43.704,26.488-69.336c0-5.456-0.552-10.768-1.36-16h33.16
			C477.852,313.632,454.82,365.96,418.156,405.536z M442.932,240.024c-10.544-32.512-36.68-58.016-69.56-67.712
			c-4.48-15.68-10.112-30.352-16.504-43.992c35.608-12.296,53.584-28.776,61.288-37.8c36.664,39.568,59.696,91.896,61.664,149.504
			H442.932z"/>
		<path d="M468.956,83.72c-1.896,4.552-4.024,9.256-6.36,14.104l14.424,6.944c2.464-5.112,4.696-10.08,6.704-14.88L468.956,83.72z"/>
		<path d="M344.02,264.024c-8.824,0-16-7.176-16-16c0-8.824,7.176-16,16-16c8.824,0,16,7.176,16,16h16
			c0-14.864-10.232-27.288-24-30.864v-17.136h-16v17.136c-13.768,3.576-24,16-24,30.864c0,17.648,14.352,32,32,32
			c8.824,0,16,7.176,16,16c0,8.824-7.176,16-16,16c-8.824,0-16-7.176-16-16h-16c0,14.864,10.232,27.288,24,30.864v17.136h16v-17.136
			c13.768-3.576,24-16,24-30.864C376.02,278.376,361.668,264.024,344.02,264.024z"/>
		<rect x="400.02" y="264.024" width="16" height="16"/>
		<rect x="272.02" y="264.024" width="16" height="16"/>
  </symbol>

  <symbol id="icon-ge" viewBox="0 0 496 496">

		<path d="M104,104c-8.824,0-16-7.176-16-16s7.176-16,16-16s16,7.176,16,16h16c0-17.648-14.352-32-32-32S72,70.352,72,88
			s14.352,32,32,32c8.824,0,16,7.176,16,16c0,8.824-7.176,16-16,16s-16-7.176-16-16H72c0,17.648,14.352,32,32,32s32-14.352,32-32
			S121.648,104,104,104z"/>
		<rect x="96" y="40" width="16" height="24"/>
		<rect x="96" y="160" width="16" height="24"/>
		<path d="M0,448v48h144v-48H0z M128,480H16v-16h112V480z"/>
		<path d="M0,416v48h144v-48H0z M128,448H16v-16h112V448z"/>
		<path d="M0,384v48h144v-48H0z M128,416H16v-16h112V416z"/>
		<polygon points="208,448 208,464 288,464 288,480 176,480 176,464 192,464 192,448 160,448 160,496 304,496 304,448 		"/>
		<polygon points="160,416 160,456 176,456 176,432 288,432 288,456 304,456 304,416 		"/>
		<path d="M160,384v48h144v-48H160z M288,416H176v-16h112V416z"/>
		<path d="M160,352v48h144v-48H160z M288,384H176v-16h112V384z"/>
		<path d="M160,320v48h144v-48H160z M288,352H176v-16h112V352z"/>
		<path d="M320,448v48h144v-48H320z M448,480H336v-16h112V480z"/>
		<path d="M320,416v48h144v-48H320z M448,448H336v-16h112V448z"/>
		<path d="M320,384v48h144v-48H320z M448,416H336v-16h112V416z"/>
		<path d="M320,352v48h144v-48H320z M448,384H336v-16h112V384z"/>
		<polygon points="432,320 432,336 448,336 448,352 336,352 336,336 416,336 416,320 320,320 320,368 464,368 464,320 		"/>
		<polygon points="320,288 320,328 336,328 336,304 448,304 448,328 464,328 464,288 		"/>
		<path d="M320,256v48h144v-48H320z M448,288H336v-16h112V288z"/>
		<path d="M376,0c-13.232,0-24,10.768-24,24s10.768,24,24,24h36.688l-117.84,117.848L231.48,126.24L3.056,305.656l9.888,12.584
			L232.52,145.768l64.632,40.392L451.312,32H376c-4.416,0-8-3.592-8-8s3.584-8,8-8h104v104c0,4.408-3.584,8-8,8
			c-4.416,0-8-3.592-8-8V52.688L302.608,214.072L231.192,174.4L27,337.752l10,12.496L232.808,193.6l72.584,40.328L448,91.312V120
			c0,13.232,10.768,24,24,24s24-10.768,24-24V0H376z"/>
		<rect x="32" y="104" width="16" height="16"/>
		<rect x="160" y="104" width="16" height="16"/>
		<path d="M104,8C46.656,8,0,54.656,0,112s46.656,104,104,104s104-46.656,104-104S161.344,8,104,8z M104,200
			c-48.52,0-88-39.48-88-88c0-48.52,39.48-88,88-88s88,39.48,88,88S152.52,200,104,200z"/>
  </symbol>

  <symbol id="icon-pq" viewBox="0 0 496 496">
    <path d="M310.933,152c-26.472,0-48,21.528-48,48s21.528,48,48,48s48-21.528,48-48S337.405,152,310.933,152z M310.933,232
      c-17.648,0-32-14.352-32-32s14.352-32,32-32s32,14.352,32,32S328.581,232,310.933,232z"/>
    <path d="M461.141,219.928L448.717,230c21.296,26.264,29.16,48.856,21.56,62c-7.712,13.368-31.744,17.768-65.904,12.088
      c-7.568-1.256-15.496-3.088-23.584-5.232c3.696-16.568,6.472-34.664,8.176-53.88c6.832-4.792,13.52-9.664,19.904-14.68
      l-9.888-12.576c-2.8,2.2-5.72,4.352-8.616,6.512c0.36-7.944,0.568-16.016,0.568-24.232c0-8.232-0.208-16.312-0.584-24.256
      c3.928,2.936,7.816,5.88,11.576,8.888l10-12.496c-7.312-5.856-15.04-11.536-22.968-17.104
      c-1.704-19.224-4.48-37.312-8.176-53.888c8.096-2.144,16.024-3.976,23.584-5.232c34.16-5.688,58.2-1.28,65.904,12.08
      c7.584,13.144-0.264,35.728-21.552,61.984l12.424,10.08c26.08-32.152,34.24-60.576,22.992-80.056
      c-11.4-19.752-40.672-26.792-82.392-19.864c-7.968,1.328-16.304,3.248-24.808,5.488C362.637,33.552,338.645,0,310.933,0
      c-22.76,0-43.472,21.728-58.304,61.184l14.968,5.632C279.749,34.52,295.541,16,310.933,16c18.376,0,37.984,27.968,50.584,74.112
      c-16.368,5.184-33.368,11.848-50.584,19.856c-7.016-3.256-14.024-6.392-21-9.224l-6.016,14.832c2.768,1.12,5.544,2.36,8.32,3.56
      c-7.112,3.68-14.232,7.496-21.312,11.584c-7.096,4.096-13.968,8.36-20.72,12.688c0.56-4.776,1.152-9.536,1.856-14.2l-15.816-2.4
      c-1.392,9.176-2.44,18.616-3.288,28.176c-15.584,10.928-29.88,22.336-42.576,33.952c-5.904-5.936-11.448-11.888-16.32-17.808
      c-22.008-26.752-30.208-49.76-22.496-63.128c6.704-11.624,26.568-16.6,54.512-13.64l1.672-15.912
      c-35.544-3.736-59.752,3.712-70.048,21.552c-11.408,19.752-2.88,48.624,23.992,81.296c5.128,6.224,10.944,12.472,17.128,18.704
      c-6.256,6.304-12.136,12.624-17.312,18.92l12.368,10.152c4.912-5.984,10.52-12,16.488-18.008
      c12.696,11.616,26.992,23.024,42.576,33.952c0.848,9.56,1.888,19,3.288,28.184l15.816-2.408c-0.704-4.664-1.296-9.424-1.864-14.2
      c6.752,4.328,13.624,8.592,20.72,12.688c7.088,4.096,14.208,7.904,21.32,11.584c-2.776,1.192-5.56,2.44-8.328,3.56l6.016,14.832
      c6.976-2.832,13.992-5.96,21-9.224c17.216,8.008,34.208,14.68,50.576,19.856C348.917,356.032,329.309,384,310.933,384
      c-15.392,0-31.192-18.528-43.352-50.848l-14.968,5.632c14.84,39.472,35.552,61.216,58.32,61.216
      c27.712,0,51.704-33.552,66.008-85.624c8.504,2.248,16.84,4.168,24.808,5.496c10.472,1.744,20.16,2.6,28.968,2.6
      c26.32,0,44.88-7.672,53.424-22.472C495.389,280.52,487.229,252.08,461.141,219.928z M231.565,224.336
      c-10.664-7.944-20.52-16.096-29.584-24.336c9.064-8.24,18.92-16.392,29.584-24.336c-0.376,8.04-0.632,16.136-0.632,24.336
      S231.189,216.296,231.565,224.336z M365.349,105.664c2.576,11.712,4.744,24.28,6.344,37.768
      c-6.768-4.344-13.656-8.616-20.752-12.712c-7.096-4.096-14.24-7.92-21.392-11.616
      C341.733,113.84,353.701,109.392,365.349,105.664z M365.341,294.336c-11.64-3.72-23.616-8.176-35.8-13.432
      c7.152-3.696,14.296-7.52,21.392-11.624c7.096-4.096,13.976-8.368,20.752-12.712
      C370.093,270.056,367.917,282.624,365.341,294.336z M373.589,236.2c-9.832,6.672-20.056,13.104-30.656,19.224
      c-10.624,6.136-21.336,11.768-32.04,16.952c-10.632-5.16-21.32-10.808-31.96-16.952c-10.656-6.152-20.912-12.592-30.704-19.232
      c-0.864-11.84-1.296-23.928-1.296-36.192c0-12.264,0.432-24.352,1.296-36.192c9.792-6.64,20.048-13.08,30.704-19.232
      c10.64-6.144,21.328-11.792,31.96-16.952c10.704,5.184,21.416,10.816,32.04,16.952c10.608,6.128,20.848,12.536,30.656,19.192
      c0.848,11.608,1.344,23.672,1.344,36.232C374.933,212.544,374.437,224.6,373.589,236.2z"/>
    <path d="M162.373,301.36l-6.888,14.44c9.376,4.472,21.208,6.712,35.352,6.712c7.736,0,16.168-0.672,25.272-2.016l-2.344-15.832
      C191.557,307.96,173.789,306.808,162.373,301.36z"/>
    <path d="M246.933,120c13.232,0,24-10.768,24-24s-10.768-24-24-24c-13.232,0-24,10.768-24,24S233.701,120,246.933,120z
        M246.933,88c4.416,0,8,3.592,8,8s-3.584,8-8,8s-8-3.592-8-8S242.517,88,246.933,88z"/>
    <path d="M430.933,176c-13.232,0-24,10.768-24,24s10.768,24,24,24s24-10.768,24-24S444.165,176,430.933,176z M430.933,208
      c-4.416,0-8-3.592-8-8s3.584-8,8-8c4.416,0,8,3.592,8,8S435.349,208,430.933,208z"/>
    <path d="M278.933,304c0-13.232-10.768-24-24-24c-13.232,0-24,10.768-24,24s10.768,24,24,24
      C268.165,328,278.933,317.232,278.933,304z M246.933,304c0-4.416,3.584-8,8-8c4.416,0,8,3.584,8,8c0,4.416-3.584,8-8,8
      C250.517,312,246.933,308.416,246.933,304z"/>
    <path d="M142.933,326.016V288h16v-48h-96v48h16v38.024L10.101,456.04c-2.072,3.904-3.168,8.312-3.168,12.744
      C6.933,483.792,19.141,496,34.149,496h153.56c15.016,0,27.224-12.208,27.224-27.224c0-4.424-1.096-8.832-3.168-12.736
      L142.933,326.016z M78.933,256h64v16h-64V256z M187.717,480H34.149c-6.184,0-11.216-5.032-11.216-11.216
      c0-1.832,0.456-3.648,1.304-5.256l70.696-133.536V288h32v41.984l70.696,133.536c0.848,1.616,1.304,3.432,1.304,5.264
      C198.933,474.968,193.901,480,187.717,480z"/>
    <rect x="50.61" y="447.206" transform="matrix(-0.908 -0.4189 0.4189 -0.908 -79.2013 894.6458)" width="16" height="17.623"/>
    <rect x="78.3" y="356.396" transform="matrix(-0.908 -0.4189 0.4189 -0.908 -1.2461 791.821)" width="16" height="79.302"/>
  </symbol>

    <symbol id="user" viewBox="0 0 527.7 514.3">
    <g>
      <path class="st0" d="M433.4,372c-8.2-13.9-20.1-23.1-24.4-25.9c-22.4-13.7-39.7-19.2-63-26.9c0,0-24.7-6-26.3-28.4
        c-1.6-22.4,0-28.2,0-28.2s20.8-18.7,21.6-60.1c0,0,19.6-12.7,17.5-42.2c0,0-0.4-8.9-10.9-7.3l0.6-19.3c0,0-36.1,18.3-76.3,18.3
        s-74-18.2-74-18.2l0.5,19.3c-10.5-1.6-10.9,7.3-10.9,7.3c-2.2,29.5,17.5,42.2,17.5,42.2c0.8,41.4,21.6,60.1,21.6,60.1
        s1.6,5.8,0,28.2c-1.6,22.4-26.3,28.4-26.3,28.4c-23.3,7.7-40.6,13.2-63,26.9c-4.3,2.8-16.2,12-24.4,25.9c-7.1,12-10.4,19.5-11,28.5
        c0,1.8,0.3,3.6,2.7,3.8c44.5,1.5,156.9,0.1,168.5-0.1c11.5,0.2,123.9,1.6,168.5,0.1c2.4-0.2,2.7-2,2.7-3.8
        C443.8,391.5,440.4,384,433.4,372z"/>
      <g>
        <path class="st1" d="M194.9,83.3v42.9c0,0,32.4,24,82.5,21.7s76.1-21.9,76.1-21.9V84.5l-78.1,19.9L194.9,83.3z"/>
        <path class="st1" d="M409.2,53.1L291.8,18.3l-166.4,29v14.5l150.1,39.6l103.8-26.5V121c-1.4,0.8-2.3,2.2-2.3,3.7
          c0,1.3,0.6,2.4,1.7,3.2L370,168l6.2,1.2l2.3-12.2l0.1,13.4h5.1l-0.2-25.2l2.3,23.8l4.4-1.1l-4.4-39.6c1.4-0.8,2.3-2.2,2.3-3.7
          c0-1.7-1.1-3.1-2.7-3.9L385,73.4l24.2-6.2V53.1z"/>
      </g>
    </g>
    <text transform="matrix(1 0 0 1 93.3161 495.993)" class="text" font-family="Open Sans" textLength="360" font-size="105">LOGIN</text>

  </symbol>
</svg>